<svg width="14" height="12" viewBox="0 0 14 12" fill="none" xmlns="http://www.w3.org/2000/svg">
<path d="M1.15527 6.70808C1.35054 6.90335 1.66712 6.90335 1.86238 6.70808L7.18465 1.38582C7.37991 1.19055 7.37991 0.873973 7.18465 0.678711L6.83109 0.325157C6.63583 0.129895 6.31925 0.129896 6.12399 0.325157L0.80172 5.64742C0.606458 5.84269 0.606458 6.15927 0.80172 6.35453L1.15527 6.70808Z" fill="#FAFAFA"/>
<path d="M1.15527 5.29226C1.35054 5.097 1.66712 5.097 1.86238 5.29226L7.18465 10.6145C7.37991 10.8098 7.37991 11.1264 7.18465 11.3216L6.83109 11.6752C6.63583 11.8705 6.31925 11.8705 6.12399 11.6752L0.80172 6.35292C0.606458 6.15766 0.606458 5.84108 0.80172 5.64582L1.15527 5.29226Z" fill="#FAFAFA"/>
<path d="M2.52479 5.73674C2.5248 5.4606 2.74865 5.23675 3.02479 5.23675H6.284C6.45118 5.23675 6.6073 5.3203 6.70003 5.45941L7.03335 5.95941C7.25486 6.29169 7.01667 6.73675 6.61732 6.73675H3.02478C2.74864 6.73675 2.52478 6.51289 2.52478 6.23674L2.52479 5.73674Z" fill="#FAFAFA"/>
<path d="M13.5515 6.23676C13.5515 6.5129 13.3277 6.73675 13.0515 6.73675H8.79234C8.62516 6.73675 8.46904 6.6532 8.37631 6.5141L8.04299 6.0141C7.82147 5.68182 8.05967 5.23675 8.45901 5.23675H13.0516C13.3277 5.23675 13.5516 5.46062 13.5516 5.73676L13.5515 6.23676Z" fill="#FAFAFA"/>
</svg>
