<svg width="40" height="40" viewBox="0 0 40 40" fill="none" xmlns="http://www.w3.org/2000/svg">
<rect width="40" height="40" rx="4" fill="none"/>
<path fill-rule="evenodd" clip-rule="evenodd" d="M15.776 22.29C16.422 22.29 17.7071 22.2546 19.4834 21.5233C21.5533 20.6711 25.6715 19.1241 28.6422 17.5351C30.7199 16.4237 31.6306 14.9538 31.6306 12.9744C31.6307 10.2271 29.4035 8 26.6561 8H15.1452C11.199 8 8 11.1989 8 15.145C8 19.0911 10.9952 22.29 15.776 22.29Z" fill="#BDBDBD"/>
<path fill-rule="evenodd" clip-rule="evenodd" d="M17.7217 27.211C17.7217 25.2767 18.8862 23.5327 20.6728 22.7912L24.2979 21.2868C27.9645 19.7651 32.0004 22.4596 32.0004 26.4295C32.0004 29.5052 29.5066 31.9982 26.4308 31.9974L22.5059 31.9964C19.8634 31.9957 17.7217 29.8534 17.7217 27.211V27.211Z" fill="#BDBDBD"/>
<path d="M12.119 23.2288H12.119C9.84412 23.2288 8 25.0728 8 27.3476V27.8811C8 30.1558 9.84412 31.9999 12.119 31.9999H12.119C14.3939 31.9999 16.238 30.1558 16.238 27.8811V27.3476C16.238 25.0728 14.3939 23.2288 12.119 23.2288Z" fill="#BDBDBD"/>
</svg>
