<svg width="375" height="1099" viewBox="0 0 375 1099" fill="none" xmlns="http://www.w3.org/2000/svg">
<g clip-path="url(#clip0_190_11506)">
<rect width="375" height="1099" fill="#39594D"/>
<g opacity="0.5" clip-path="url(#clip1_190_11506)">
<g filter="url(#filter0_f_190_11506)">
<ellipse cx="756.778" cy="870.254" rx="756.778" ry="870.254" transform="matrix(0.922485 0.386033 -0.537093 0.843523 -439.185 -1026.49)" fill="url(#paint0_linear_190_11506)"/>
</g>
<g filter="url(#filter1_f_190_11506)">
<ellipse cx="894.18" cy="836.508" rx="894.18" ry="836.508" transform="matrix(0.983632 0.180189 -0.268496 0.963281 489.552 25.3174)" fill="url(#paint1_linear_190_11506)"/>
</g>
</g>
<g opacity="0.3" clip-path="url(#clip2_190_11506)">
<path d="M456.732 -77.8661C457.48 -76.4486 457.65 -74.7961 457.205 -73.2561L412.64 81.0707C411.881 83.6974 409.49 85.5158 406.756 85.5449L232.677 87.3991C229.5 87.433 226.813 85.0577 226.457 81.901L210.961 -55.4605C210.657 -58.1503 212.136 -60.7255 214.612 -61.8193L412.522 -149.245C415.497 -150.559 418.981 -149.348 420.5 -146.472L456.732 -77.8661Z" stroke="#FAFAFA" stroke-width="0.5"/>
<path d="M172.563 139.923C170.354 142.048 167.08 142.628 164.276 141.39L11.0225 73.7036C8.37445 72.534 6.62814 69.9536 6.52688 67.0605L-0.539534 -134.832C-0.592389 -136.342 -0.190961 -137.833 0.612836 -139.112L18.2175 -167.136C20.0205 -170.006 23.5151 -171.323 26.7638 -170.357L174.076 -126.546C176.064 -125.955 177.721 -124.572 178.659 -122.722L209.837 -61.1963C210.244 -60.3934 210.504 -59.5241 210.605 -58.6296L226.667 83.7543C226.931 86.0887 226.092 88.4127 224.4 90.0417L172.563 139.923Z" stroke="#FAFAFA" stroke-width="0.5"/>
<path d="M-7.43938 -134.832C-4.04177 -135.986 -0.493335 -133.536 -0.367824 -129.95L6.54505 67.5555C6.63194 70.0381 4.9996 72.2544 2.60292 72.9078L-136.583 110.854C-139.265 111.585 -142.061 110.141 -143.018 107.531L-198.511 -43.9566C-199.096 -45.5562 -198.886 -47.3391 -197.944 -48.7584L-180.631 -74.8453C-179.977 -75.8319 -179.013 -76.5736 -177.892 -76.9543L-7.43938 -134.832Z" stroke="#FAFAFA" stroke-width="0.5"/>
<path d="M452.885 329.93C451.438 331.382 449.462 332.184 447.412 332.151L234.68 328.701C231.817 328.655 229.227 326.993 227.991 324.41L165.344 193.468C164.755 192.237 164.51 190.87 164.636 189.512L168.65 146.234C168.818 144.43 169.628 142.746 170.933 141.49L224.924 89.5358C226.311 88.2013 228.155 87.4468 230.079 87.4263L408.368 85.5272C410.291 85.5068 412.148 86.2202 413.563 87.5221L539.208 203.179C540.845 204.686 541.734 206.839 541.638 209.062L540.324 239.338C540.243 241.221 539.46 243.005 538.13 244.34L452.885 329.93Z" stroke="#FAFAFA" stroke-width="0.5"/>
<path d="M164.76 188.167C164.558 190.341 163.425 192.321 161.653 193.597L-14.7299 320.59C-16.4168 321.805 -18.5299 322.27 -20.571 321.877L-131.795 300.436C-135.149 299.79 -137.651 296.973 -137.897 293.566L-149.767 129.248C-149.876 127.732 -149.525 126.218 -148.76 124.904L-142.887 114.82C-141.89 113.108 -140.259 111.856 -138.348 111.335L4.10368 72.4981C5.77618 72.0421 7.55464 72.1755 9.14041 72.8759L163.939 141.244C166.907 142.555 168.706 145.617 168.406 148.848L164.76 188.167Z" stroke="#FAFAFA" stroke-width="0.5"/>
<path d="M442.329 332.071C446.777 332.143 450.199 336.026 449.712 340.447L427.907 538.403C427.711 540.178 426.893 541.827 425.597 543.056L331.683 632.099C328.723 634.904 324.071 634.853 321.173 631.983L192.221 504.242C190.353 502.391 189.582 499.701 190.187 497.141L228.611 334.54C229.426 331.088 232.535 328.669 236.081 328.726L442.329 332.071Z" stroke="#FAFAFA" stroke-width="0.5"/>
<path d="M190.475 495.922C189.723 499.104 187.009 501.44 183.751 501.711L72.5979 510.937C69.4051 511.202 66.3927 509.423 65.0826 506.5L-14.853 328.107C-16.3186 324.836 -15.2829 320.986 -12.3742 318.892L157.118 196.86C160.936 194.111 166.311 195.485 168.341 199.729L228.859 326.22C229.603 327.775 229.793 329.538 229.396 331.215L190.475 495.922Z" stroke="#FAFAFA" stroke-width="0.5"/>
<path d="M-29.2175 590.364C-30.761 591.627 -32.7418 592.229 -34.7273 592.037L-107.741 584.975C-110.601 584.698 -113.057 582.821 -114.075 580.134L-195.309 365.674C-196.342 362.946 -195.712 359.867 -193.689 357.764L-140.323 302.295C-138.55 300.452 -135.964 299.632 -133.452 300.116L-21.2278 321.749C-18.8109 322.215 -16.7728 323.829 -15.7663 326.075L64.9055 506.111C66.2996 509.222 65.4359 512.882 62.7976 515.041L-29.2175 590.364Z" stroke="#FAFAFA" stroke-width="0.5"/>
<path d="M695.223 614.138C696.621 615.807 697.23 617.998 696.895 620.15L686.728 685.338C686.385 687.534 685.093 689.468 683.194 690.624L499.517 802.478C496.73 804.175 493.17 803.89 490.688 801.773L329.72 664.419C328.103 663.039 327.143 661.042 327.075 658.917L326.484 640.523C326.415 638.367 327.271 636.285 328.836 634.801L425.37 543.275C426.804 541.915 428.714 541.171 430.691 541.204L633.571 544.583C635.761 544.619 637.827 545.605 639.234 547.285L695.223 614.138Z" stroke="#FAFAFA" stroke-width="0.5"/>
<path d="M327.079 659.109C327.143 661.118 326.404 663.07 325.025 664.532L241.018 753.606C239.796 754.902 238.155 755.724 236.386 755.927L51.9287 777.091C48.5943 777.473 45.4076 775.609 44.1071 772.515L-29.441 597.532C-30.7367 594.449 -29.8505 590.881 -27.2629 588.763L65.4518 512.868C66.6355 511.899 68.0856 511.313 69.6101 511.186L185.748 501.546C187.948 501.363 190.118 502.153 191.686 503.706L324.237 635.013C325.609 636.372 326.408 638.205 326.47 640.135L327.079 659.109Z" stroke="#FAFAFA" stroke-width="0.5"/>
<path d="M-36.1109 591.9C-33.3469 592.167 -30.9528 593.93 -29.8768 596.49L44.8476 774.272C45.7647 776.454 45.6056 778.939 44.4179 780.987L-27.3078 904.618C-28.651 906.933 -31.1195 908.364 -33.7962 908.379L-140.97 908.988C-143.22 909 -145.359 908.009 -146.803 906.284L-229.646 807.319C-231.407 805.215 -231.888 802.321 -230.903 799.76L-162.38 621.739C-161.849 620.36 -160.925 619.166 -159.721 618.307L-114.709 586.164C-113.226 585.104 -111.409 584.617 -109.594 584.793L-36.1109 591.9Z" stroke="#FAFAFA" stroke-width="0.5"/>
<path d="M512.924 986.33C513.115 988.242 512.57 990.156 511.399 991.68L499.634 1007C497.606 1009.64 494.09 1010.64 490.976 1009.46L247.529 917.461C244.65 916.373 242.72 913.646 242.65 910.569L239.195 758.711C239.15 756.726 239.888 754.803 241.251 753.359L322.249 667.475C325.01 664.547 329.582 664.3 332.644 666.912L492.534 803.346C494.016 804.611 494.952 806.401 495.146 808.34L512.924 986.33Z" stroke="#FAFAFA" stroke-width="0.5"/>
<path d="M242.704 912.878C242.745 914.674 242.144 916.426 241.009 917.819L115.186 1072.26C112.161 1075.97 106.486 1075.97 103.468 1072.24L-26.1974 912.398C-28.1719 909.964 -28.4374 906.563 -26.8645 903.852L44.3995 781.017C45.5969 778.953 47.6995 777.576 50.0701 777.304L230.905 756.556C235.319 756.05 239.214 759.445 239.315 763.886L242.704 912.878Z" stroke="#FAFAFA" stroke-width="0.5"/>
<path d="M493.188 1021.15C492.938 1021.95 492.557 1022.71 492.059 1023.38L345.06 1222.81C344.002 1224.24 342.47 1225.26 340.737 1225.67L267.464 1243.18C265.475 1243.66 263.378 1243.31 261.653 1242.21L123.659 1154.32C121.831 1153.16 120.591 1151.27 120.255 1149.13L109.843 1082.79C109.511 1080.67 110.094 1078.51 111.449 1076.85L239.333 919.878C241.385 917.36 244.818 916.436 247.856 917.584L489.561 1008.92C493.301 1010.34 495.291 1014.42 494.099 1018.24L493.188 1021.15Z" stroke="#FAFAFA" stroke-width="0.5"/>
<path d="M108.04 1077.88C108.878 1078.91 109.429 1080.15 109.635 1081.47L119.963 1147.26C120.455 1150.4 118.931 1153.51 116.149 1155.05L79.3635 1175.33C78.403 1175.86 77.3387 1176.17 76.2446 1176.25L-164.175 1193.05C-168.287 1193.34 -171.869 1190.28 -172.225 1186.17L-189.245 989.549C-189.378 988.012 -189.037 986.472 -188.269 985.135L-146.687 912.772C-145.347 910.441 -142.87 908.998 -140.182 908.983L-33.1006 908.375C-30.8097 908.362 -28.6369 909.39 -27.1936 911.169L108.04 1077.88Z" stroke="#FAFAFA" stroke-width="0.5"/>
<path d="M486.912 1030.36C489.876 1026.34 495.858 1026.26 498.936 1030.19L663.856 1240.94C665.877 1243.52 666 1247.11 664.16 1249.83L570.277 1388.33C567.842 1391.92 562.889 1392.73 559.442 1390.1L349.318 1229.53C346.045 1227.03 345.38 1222.37 347.825 1219.05L486.912 1030.36Z" stroke="#FAFAFA" stroke-width="0.5"/>
</g>
</g>
<defs>
<filter id="filter0_f_190_11506" x="-1269.6" y="-1011.44" width="2122.24" height="2022.35" filterUnits="userSpaceOnUse" color-interpolation-filters="sRGB">
<feFlood flood-opacity="0" result="BackgroundImageFix"/>
<feBlend mode="normal" in="SourceGraphic" in2="BackgroundImageFix" result="shape"/>
<feGaussianBlur stdDeviation="110.446" result="effect1_foregroundBlur_190_11506"/>
</filter>
<filter id="filter1_f_190_11506" x="15.6196" y="-50.5611" width="2257.76" height="2085.59" filterUnits="userSpaceOnUse" color-interpolation-filters="sRGB">
<feFlood flood-opacity="0" result="BackgroundImageFix"/>
<feBlend mode="normal" in="SourceGraphic" in2="BackgroundImageFix" result="shape"/>
<feGaussianBlur stdDeviation="110.446" result="effect1_foregroundBlur_190_11506"/>
</filter>
<linearGradient id="paint0_linear_190_11506" x1="1022.86" y1="1450.31" x2="-302.391" y2="868.943" gradientUnits="userSpaceOnUse">
<stop stop-color="#7CA696"/>
<stop offset="1" stop-color="#A9B9F3"/>
</linearGradient>
<linearGradient id="paint1_linear_190_11506" x1="1208.57" y1="1394.07" x2="-237.999" y2="614.021" gradientUnits="userSpaceOnUse">
<stop stop-color="#030712"/>
<stop offset="1" stop-color="#9DAAA4"/>
</linearGradient>
<clipPath id="clip0_190_11506">
<rect width="375" height="1099" fill="white"/>
</clipPath>
<clipPath id="clip1_190_11506">
<rect width="1606" height="1301.97" fill="white" transform="translate(-461 -101)"/>
</clipPath>
<clipPath id="clip2_190_11506">
<rect width="1924" height="1120" fill="white" transform="translate(949 -188) rotate(90)"/>
</clipPath>
</defs>
</svg>
