<svg width="24" height="24" viewBox="0 0 24 24" fill="none" xmlns="http://www.w3.org/2000/svg">
<path fill-rule="evenodd" clip-rule="evenodd" d="M14.642 2.85742C11.3283 2.85742 8.64202 5.54371 8.64202 8.85742C8.64202 12.1711 11.3283 14.8574 14.642 14.8574C17.9557 14.8574 20.642 12.1711 20.642 8.85742C20.642 5.54371 17.9557 2.85742 14.642 2.85742ZM7.64202 8.85742C7.64202 4.99143 10.776 1.85742 14.642 1.85742C18.508 1.85742 21.642 4.99143 21.642 8.85742C21.642 12.7234 18.508 15.8574 14.642 15.8574C10.776 15.8574 7.64202 12.7234 7.64202 8.85742Z" fill="#39594D"/>
<path fill-rule="evenodd" clip-rule="evenodd" d="M14.642 5.62322C12.8558 5.62322 11.4078 7.07122 11.4078 8.85742C11.4078 10.6436 12.8558 12.0916 14.642 12.0916C16.4282 12.0916 17.8762 10.6436 17.8762 8.85742C17.8762 7.07122 16.4282 5.62322 14.642 5.62322ZM10.4078 8.85742C10.4078 6.51894 12.3035 4.62322 14.642 4.62322C16.9805 4.62322 18.8762 6.51894 18.8762 8.85742C18.8762 11.1959 16.9805 13.0916 14.642 13.0916C12.3035 13.0916 10.4078 11.1959 10.4078 8.85742Z" fill="#39594D"/>
<path fill-rule="evenodd" clip-rule="evenodd" d="M7.18236 13.1429C8.0589 12.2663 9.48006 12.2663 10.3566 13.1429C11.2332 14.0194 11.2332 15.4406 10.3566 16.3171L5.91173 20.762C5.03517 21.6385 3.61398 21.6385 2.73744 20.7619C1.86094 19.8854 1.86096 18.4643 2.73749 17.5877L7.18236 13.1429ZM9.6495 13.85C9.16348 13.3639 8.37549 13.3639 7.88947 13.85L3.44459 18.2948C2.95858 18.7808 2.95857 19.5688 3.44457 20.0548C3.93058 20.5409 4.7186 20.5409 5.20462 20.0549L9.6495 15.61C10.1355 15.124 10.1355 14.336 9.6495 13.85Z" fill="#39594D"/>
</svg>
