<svg width="24" height="24" viewBox="0 0 24 24" fill="none" xmlns="http://www.w3.org/2000/svg">
<path fill-rule="evenodd" clip-rule="evenodd" d="M14.642 2.85767C11.3283 2.85767 8.64202 5.54396 8.64202 8.85767C8.64202 12.1714 11.3283 14.8577 14.642 14.8577C17.9557 14.8577 20.642 12.1714 20.642 8.85767C20.642 5.54396 17.9557 2.85767 14.642 2.85767ZM7.64202 8.85767C7.64202 4.99167 10.776 1.85767 14.642 1.85767C18.508 1.85767 21.642 4.99167 21.642 8.85767C21.642 12.7237 18.508 15.8577 14.642 15.8577C10.776 15.8577 7.64202 12.7237 7.64202 8.85767Z" fill="#FF7759"/>
<path fill-rule="evenodd" clip-rule="evenodd" d="M14.642 5.62347C12.8558 5.62347 11.4078 7.07147 11.4078 8.85767C11.4078 10.6439 12.8558 12.0919 14.642 12.0919C16.4282 12.0919 17.8762 10.6439 17.8762 8.85767C17.8762 7.07147 16.4282 5.62347 14.642 5.62347ZM10.4078 8.85767C10.4078 6.51918 12.3035 4.62347 14.642 4.62347C16.9805 4.62347 18.8762 6.51918 18.8762 8.85767C18.8762 11.1961 16.9805 13.0919 14.642 13.0919C12.3035 13.0919 10.4078 11.1961 10.4078 8.85767Z" fill="#FF7759"/>
<path fill-rule="evenodd" clip-rule="evenodd" d="M7.18236 13.1431C8.0589 12.2666 9.48006 12.2666 10.3566 13.1431C11.2332 14.0196 11.2332 15.4408 10.3566 16.3173L5.91173 20.7622C5.03517 21.6388 3.61398 21.6388 2.73744 20.7622C1.86094 19.8856 1.86096 18.4645 2.73749 17.588L7.18236 13.1431ZM9.6495 13.8502C9.16348 13.3642 8.37549 13.3642 7.88947 13.8502L3.44459 18.2951C2.95858 18.7811 2.95857 19.5691 3.44457 20.0551C3.93058 20.5411 4.7186 20.5411 5.20462 20.0551L9.6495 15.6102C10.1355 15.1242 10.1355 14.3362 9.6495 13.8502Z" fill="#FF7759"/>
</svg>
