<svg width="24" height="24" viewBox="0 0 24 24" fill="none" xmlns="http://www.w3.org/2000/svg">
<path fill-rule="evenodd" clip-rule="evenodd" d="M7.5 2C6.11929 2 5 3.11929 5 4.5V19.5C5 20.8807 6.11929 22 7.5 22H16.5C17.8807 22 19 20.8807 19 19.5V8.78836C19 8.40841 18.8558 8.04261 18.5966 7.76485L13.6605 2.47649C13.3768 2.17256 12.9797 2 12.5639 2H7.5ZM4 4.5C4 2.567 5.567 1 7.5 1H12.5639C13.2569 1 13.9187 1.2876 14.3915 1.79415L19.3276 7.08251C19.7597 7.54544 20 8.1551 20 8.78836V19.5C20 21.433 18.433 23 16.5 23H7.5C5.567 23 4 21.433 4 19.5V4.5Z" fill="#39594D"/>
<path fill-rule="evenodd" clip-rule="evenodd" d="M20 16.306C20 14.7846 18.6525 13.616 17.1464 13.8311L14.1464 14.2597C12.9148 14.4357 12 15.4905 12 16.7346V21.5C12 22.3284 12.6716 23 13.5 23H16.5C18.433 23 20 21.433 20 19.5V16.306ZM17.2879 14.8211C18.1915 14.692 19 15.3932 19 16.306V19.5C19 20.8807 17.8807 22 16.5 22H13.5C13.2239 22 13 21.7761 13 21.5V16.7346C13 15.9881 13.5489 15.3552 14.2879 15.2497L17.2879 14.8211Z" fill="#39594D"/>
<path fill-rule="evenodd" clip-rule="evenodd" d="M4 19.5C4 21.433 5.567 23 7.5 23L11.5 23.0001C12.3284 23.0001 13 22.3284 13 21.5V13.5616C13 12.4144 12.2193 11.4145 11.1063 11.1362L7.10633 10.1362C5.52847 9.74178 4 10.9352 4 12.5616V19.5ZM7.5 22C6.11929 22 5 20.8807 5 19.5V12.5616C5 11.5857 5.91708 10.8697 6.8638 11.1064L10.8638 12.1064C11.5316 12.2733 12 12.8733 12 13.5616V21.5C12 21.7761 11.7761 22.0001 11.5 22.0001L7.5 22Z" fill="#39594D"/>
<path fill-rule="evenodd" clip-rule="evenodd" d="M11.5 6V2H12.5V6C12.5 7.38071 13.6193 8.5 15 8.5H19V9.5H15C13.067 9.5 11.5 7.933 11.5 6Z" fill="#39594D"/>
</svg>
