<svg width="1512" height="879" viewBox="0 0 1512 879" fill="none" xmlns="http://www.w3.org/2000/svg">
<g clip-path="url(#clip0_71_27422)">
<rect width="1512" height="879" fill="#111111"/>
<rect width="2545" height="1387" transform="translate(-594 -34)" fill="#FFAD9B"/>
<g clip-path="url(#clip1_71_27422)">
<rect width="1675" height="900" transform="translate(-41 -7)" fill="#39594D"/>
<g opacity="0.5" clip-path="url(#clip2_71_27422)">
<g filter="url(#filter0_f_71_27422)">
<ellipse cx="745.185" cy="929.441" rx="745.185" ry="929.441" transform="matrix(0.90067 0.434504 -0.483477 0.875357 154.202 -1184)" fill="url(#paint0_linear_71_27422)"/>
</g>
<g filter="url(#filter1_f_71_27422)">
<ellipse cx="864.24" cy="918.808" rx="864.24" ry="918.808" transform="matrix(0.97842 0.206626 -0.235009 0.971993 895.855 -139)" fill="url(#paint1_linear_71_27422)"/>
</g>
</g>
</g>
<g opacity="0.3" clip-path="url(#clip3_71_27422)">
<path d="M1628.78 106.201C1625.69 106.678 1622.67 105.022 1621.4 102.161L1481.09 -215.189C1480.06 -217.521 1480.4 -220.231 1481.97 -222.241L1623.95 -404.331C1625.7 -406.57 1628.64 -407.515 1631.36 -406.716L1953.39 -312.203C1955.16 -311.683 1956.65 -310.479 1957.53 -308.858L1998.52 -233.123C1999.4 -231.491 1999.6 -229.573 1999.05 -227.798L1911.02 58.7402C1910.24 61.2753 1908.08 63.1421 1905.46 63.5461L1628.78 106.201Z" stroke="#FAFAFA" stroke-width="0.5"/>
<path d="M1210.86 179.104C1208.56 179.41 1206.31 178.247 1205.22 176.191L1126.64 27.447C1126.3 26.8008 1126.09 26.0936 1126.02 25.3659L1107.88 -169.747C1107.7 -171.627 1108.5 -173.466 1109.98 -174.632L1192.32 -239.267C1193.41 -240.125 1194.78 -240.542 1196.17 -240.437L1476.1 -219.224C1478.14 -219.069 1479.94 -217.803 1480.76 -215.93L1622.16 103.88C1623.01 105.801 1622.7 108.036 1621.37 109.657L1608.95 124.75C1608.06 125.836 1606.79 126.543 1605.39 126.728L1210.86 179.104Z" stroke="#FAFAFA" stroke-width="0.5"/>
<path d="M1103.81 -173.804C1106.09 -173.175 1107.74 -171.202 1107.96 -168.848L1125.74 22.3948C1125.97 24.8299 1124.61 27.1372 1122.37 28.1251L712.645 209.058C709.879 210.279 706.641 209.123 705.273 206.426L642.048 81.7038C641.146 79.9237 641.242 77.801 642.302 76.1101L841.704 -241.951C843.039 -244.081 845.614 -245.082 848.037 -244.413L1103.81 -173.804Z" stroke="#FAFAFA" stroke-width="0.5"/>
<path d="M642.778 75.3501C641.487 77.4092 638.982 78.3549 636.652 77.6623L328.856 -13.8449C327.059 -14.379 325.667 -15.8052 325.176 -17.6144L282.091 -176.426C281.691 -177.901 281.934 -179.477 282.759 -180.764L349.678 -285.073C350.652 -286.591 352.319 -287.524 354.122 -287.56L809.132 -296.772C811.045 -296.811 812.836 -295.836 813.843 -294.209L842.181 -248.407C843.266 -246.653 843.26 -244.434 842.164 -242.686L642.778 75.3501Z" stroke="#FAFAFA" stroke-width="0.5"/>
<path d="M282.865 53.8893C282.18 54.9793 281.14 55.8003 279.921 56.2141L-73.0246 176.016C-76.339 177.141 -79.8623 174.986 -80.3704 171.523L-142.715 -253.356C-143.086 -255.888 -141.696 -258.35 -139.336 -259.339L-73.7702 -286.806C-72.5596 -287.313 -71.2095 -287.379 -69.9552 -286.993L278.521 -179.655C280.357 -179.09 281.776 -177.622 282.279 -175.767L325.331 -17.0778C325.74 -15.5672 325.5 -13.954 324.667 -12.6288L282.865 53.8893Z" stroke="#FAFAFA" stroke-width="0.5"/>
<path d="M1381.33 743.127C1378.42 745.293 1374.38 745.082 1371.71 742.625L1116.56 507.844C1114.46 505.905 1113.63 502.942 1114.42 500.192L1205.66 184.351C1206.49 181.471 1208.95 179.356 1211.92 178.962L1598.5 127.641C1603.2 127.017 1607.31 130.831 1607.03 135.565L1580.48 591.621C1580.35 593.851 1579.24 595.908 1577.45 597.241L1381.33 743.127Z" stroke="#FAFAFA" stroke-width="0.5"/>
<path d="M1205.86 177.404C1206.61 178.822 1206.78 180.475 1206.33 182.015L1114.4 500.258C1113.64 502.885 1111.25 504.703 1108.52 504.732L746.87 508.583C743.693 508.617 741.007 506.241 740.65 503.085L708.225 215.755C707.921 213.065 709.4 210.49 711.877 209.396L1120.84 28.8011C1123.82 27.4876 1127.3 28.6983 1128.82 31.5733L1205.86 177.404Z" stroke="#FAFAFA" stroke-width="0.5"/>
<path d="M627.543 618.047C625.335 620.171 622.062 620.75 619.259 619.512L300.889 478.95C298.24 477.781 296.493 475.2 296.392 472.307L281.882 57.8926C281.829 56.382 282.231 54.8904 283.035 53.6106L322.918 -9.85412C324.721 -12.7233 328.215 -14.0399 331.463 -13.0742L637.483 77.9047C639.471 78.4958 641.128 79.8785 642.066 81.7284L707.1 210.017C707.507 210.82 707.767 211.69 707.868 212.584L740.86 504.936C741.124 507.271 740.285 509.595 738.592 511.224L627.543 618.047Z" stroke="#FAFAFA" stroke-width="0.5"/>
<path d="M274.984 57.892C278.381 56.7388 281.929 59.1885 282.055 62.7741L296.411 472.804C296.498 475.286 294.866 477.503 292.469 478.156L2.61969 557.15C-0.0626096 557.881 -2.85811 556.438 -3.81468 553.827L-118.461 240.97C-119.047 239.37 -118.837 237.587 -117.894 236.167L-80.4072 179.702C-79.7524 178.716 -78.789 177.974 -77.6679 177.594L274.984 57.892Z" stroke="#FAFAFA" stroke-width="0.5"/>
<path d="M2020.55 1044.77C2019.19 1046.18 2017.33 1047 2015.37 1047.07L1597.67 1061.33C1595.47 1061.41 1593.35 1060.52 1591.86 1058.9L1375.22 823.215C1373.86 821.738 1373.14 819.782 1373.23 817.778L1376.15 750.449C1376.25 748.179 1377.37 746.074 1379.19 744.718L1578.16 596.709C1579.53 595.693 1581.2 595.168 1582.9 595.22L1834.72 602.931C1837.36 603.011 1839.77 604.466 1841.07 606.767L2060.5 995.559C2062.14 998.466 2061.68 1002.11 2059.36 1004.51L2020.55 1044.77Z" stroke="#FAFAFA" stroke-width="0.5"/>
<path d="M1194.6 1000.06C1193.16 1001.51 1191.18 1002.31 1189.13 1002.28L751.847 995.188C748.985 995.142 746.394 993.48 745.158 990.898L615.777 720.567C615.188 719.336 614.944 717.968 615.07 716.609L623.629 624.356C623.796 622.552 624.607 620.868 625.913 619.612L739.115 510.718C740.502 509.384 742.345 508.63 744.269 508.609L1110.13 504.713C1112.05 504.693 1113.91 505.406 1115.32 506.708L1373.72 744.485C1375.36 745.992 1376.25 748.145 1376.16 750.368L1373.22 817.982C1373.14 819.865 1372.36 821.649 1371.03 822.984L1194.6 1000.06Z" stroke="#FAFAFA" stroke-width="0.5"/>
<path d="M615.193 715.265C614.991 717.44 613.858 719.421 612.085 720.696L250.64 980.84C248.954 982.054 246.841 982.519 244.801 982.126L11.3234 937.135C7.96953 936.489 5.46712 933.671 5.22096 930.265L-19.3245 590.571C-19.4341 589.054 -19.0831 587.54 -18.3175 586.226L-3.6874 561.115C-2.69008 559.403 -1.05997 558.152 0.851426 557.631L293.967 477.746C295.639 477.291 297.417 477.424 299.002 478.124L618.916 619.367C621.885 620.678 623.685 623.74 623.385 626.972L615.193 715.265Z" stroke="#FAFAFA" stroke-width="0.5"/>
<path d="M-113.629 1059.97C-114.164 1060.52 -114.887 1060.86 -115.657 1060.91L-249.188 1069.83C-250.978 1069.95 -252.496 1068.53 -252.496 1066.74L-252.496 605.056C-252.496 603.415 -251.218 602.058 -249.579 601.96L-22.5424 588.42C-20.8479 588.319 -19.3871 589.599 -19.2647 591.292L5.5459 934.656C5.60929 935.533 5.29718 936.396 4.68728 937.03L-113.629 1059.97Z" stroke="#FAFAFA" stroke-width="0.5"/>
<path d="M1568.93 1424.16C1568.66 1427.91 1565.52 1430.79 1561.76 1430.73L1153.65 1423.94C1149.49 1423.87 1146.29 1420.24 1146.75 1416.1L1192.07 1004.79C1192.24 1003.2 1192.96 1001.71 1194.09 1000.58L1367.89 826.135C1370.72 823.287 1375.36 823.38 1378.09 826.34L1592.15 1059.22C1593.46 1060.64 1594.13 1062.55 1593.99 1064.49L1568.93 1424.16Z" stroke="#FAFAFA" stroke-width="0.5"/>
<path d="M666.122 1338C665.369 1341.18 662.656 1343.52 659.398 1343.79L424.12 1363.31C420.928 1363.58 417.916 1361.8 416.606 1358.88L250.521 988.353C249.054 985.082 250.09 981.23 253 979.136L607.554 723.953C611.371 721.205 616.745 722.579 618.776 726.821L746.027 992.703C746.772 994.259 746.961 996.022 746.565 997.7L666.122 1338Z" stroke="#FAFAFA" stroke-width="0.5"/>
</g>
</g>
<defs>
<filter id="filter0_f_71_27422" x="-652.678" y="-1143.4" width="2057.37" height="2193.56" filterUnits="userSpaceOnUse" color-interpolation-filters="sRGB">
<feFlood flood-opacity="0" result="BackgroundImageFix"/>
<feBlend mode="normal" in="SourceGraphic" in2="BackgroundImageFix" result="shape"/>
<feGaussianBlur stdDeviation="110.446" result="effect1_foregroundBlur_71_27422"/>
</filter>
<filter id="filter1_f_71_27422" x="431.693" y="-199.171" width="2187.65" height="2263.64" filterUnits="userSpaceOnUse" color-interpolation-filters="sRGB">
<feFlood flood-opacity="0" result="BackgroundImageFix"/>
<feBlend mode="normal" in="SourceGraphic" in2="BackgroundImageFix" result="shape"/>
<feGaussianBlur stdDeviation="110.446" result="effect1_foregroundBlur_71_27422"/>
</filter>
<linearGradient id="paint0_linear_71_27422" x1="1007.19" y1="1548.94" x2="-330.124" y2="1008.06" gradientUnits="userSpaceOnUse">
<stop stop-color="#7CA696"/>
<stop offset="1" stop-color="#A9B9F3"/>
</linearGradient>
<linearGradient id="paint1_linear_71_27422" x1="1168.1" y1="1531.22" x2="-304.925" y2="832.271" gradientUnits="userSpaceOnUse">
<stop stop-color="#030712"/>
<stop offset="1" stop-color="#9DAAA4"/>
</linearGradient>
<clipPath id="clip0_71_27422">
<rect width="1512" height="879" fill="white"/>
</clipPath>
<clipPath id="clip1_71_27422">
<rect width="1675" height="900" fill="white" transform="translate(-41 -7)"/>
</clipPath>
<clipPath id="clip2_71_27422">
<rect width="1544" height="1443" fill="white" transform="translate(-18 -279)"/>
</clipPath>
<clipPath id="clip3_71_27422">
<rect width="3881" height="2260" fill="white" transform="translate(2198 -47) rotate(90)"/>
</clipPath>
</defs>
</svg>
