<svg width="41" height="38" viewBox="0 0 41 38" fill="none" xmlns="http://www.w3.org/2000/svg">
<path d="M0 9.84419C0 4.4074 4.4074 0 9.84419 0H13V38H9.84419C4.4074 38 0 33.5926 0 28.1558V9.84419Z" fill="#FF7759"/>
<mask id="path-3-inside-1_71_36393" fill="white">
<path d="M13 0H29V38H13V0Z"/>
</mask>
<path d="M13 0H29V38H13V0Z" fill="#FF7759"/>
<path d="M26.8965 19.0576C26.8965 19.3338 26.6726 19.5576 26.3965 19.5576H24.2669H22.1373C21.9701 19.5576 21.814 19.4741 21.7212 19.335L21.3879 18.835C21.1664 18.5027 21.4046 18.0576 21.8039 18.0576H24.1002H26.3965C26.6726 18.0576 26.8965 18.2815 26.8965 18.5576L26.8965 19.0576Z" fill="white"/>
<path d="M27 13.9913C27.2761 13.9913 27.5 14.2152 27.5 14.4913L27.5 16.6209L27.5 18.7505C27.5 18.9177 27.4164 19.0738 27.2773 19.1666L26.7773 19.4999C26.4451 19.7214 26 19.4832 26 19.0838L26 16.7876L26 14.4913C26 14.2152 26.2239 13.9913 26.5 13.9913L27 13.9913Z" fill="white"/>
<path d="M14.5 19.5294C14.6952 19.7246 15.0118 19.7246 15.2071 19.5294L20.5293 14.2071C20.7246 14.0118 20.7246 13.6953 20.5293 13.5L20.1758 13.1464C19.9805 12.9512 19.6639 12.9512 19.4687 13.1464L14.1464 18.4687C13.9511 18.664 13.9511 18.9806 14.1464 19.1758L14.5 19.5294Z" fill="white"/>
<path d="M14.5 18.1136C14.6952 17.9183 15.0118 17.9183 15.2071 18.1136L20.5293 23.4358C20.7246 23.6311 20.7246 23.9477 20.5293 24.1429L20.1758 24.4965C19.9805 24.6917 19.6639 24.6917 19.4687 24.4965L14.1464 19.1742C13.9511 18.979 13.9511 18.6624 14.1464 18.4671L14.5 18.1136Z" fill="white"/>
<path d="M15.8695 18.558C15.8695 18.2819 16.0933 18.058 16.3695 18.058H19.6287C19.7959 18.058 19.952 18.1416 20.0447 18.2807L20.378 18.7807C20.5996 19.113 20.3614 19.558 19.962 19.558H16.3695C16.0933 19.558 15.8695 19.3342 15.8695 19.058L15.8695 18.558Z" fill="white"/>
<path d="M13 1.0303H29V-1.0303H13V1.0303ZM29 36.9697H13V39.0303H29V36.9697Z" fill="#FF7759" mask="url(#path-3-inside-1_71_36393)"/>
<path d="M40.9795 28.1558C40.9795 33.5926 36.5721 38 31.1353 38L27.9795 38L27.9795 -1.1365e-06L31.1353 -8.60607e-07C36.5721 -3.85307e-07 40.9795 4.4074 40.9795 9.84419L40.9795 28.1558Z" fill="#FF7759"/>
</svg>
