<svg width="96" height="17" viewBox="0 0 96 17" fill="none" xmlns="http://www.w3.org/2000/svg">
<path d="M27.0165 16.7214C29.3932 16.7214 31.4732 15.533 32.2955 13.1338C32.4552 12.6533 32.2262 12.334 31.7699 12.334H30.8782C30.4671 12.334 30.193 12.5162 30.0091 12.9048C29.3013 14.2995 28.3177 14.801 27.0842 14.801C24.8897 14.801 23.5417 13.2692 23.5417 10.7103C23.5417 8.1514 24.9365 6.6196 27.0375 6.6196C28.3177 6.6196 29.369 7.16782 30.0317 8.47065C30.2381 8.85925 30.488 9.04145 30.9008 9.04145H31.7925C32.2488 9.04145 32.4777 8.74476 32.3181 8.30941C31.3587 5.70375 29.2094 4.69921 27.0165 4.69921C23.703 4.69921 21.2344 7.14525 21.2344 10.7103C21.2344 14.2754 23.5885 16.7214 27.0165 16.7214ZM86.8226 9.659C87.1193 7.71604 88.4447 6.50512 90.2506 6.50512C92.0565 6.50512 93.4045 7.73862 93.5641 9.659H86.8226ZM90.3425 16.7214C92.4451 16.7214 94.5477 15.7394 95.5764 13.5224C95.8279 12.9967 95.599 12.6307 95.1427 12.6307H94.2978C93.8866 12.6307 93.6351 12.8129 93.4287 13.1789C92.7434 14.3898 91.555 14.8929 90.3441 14.8929C88.2641 14.8929 86.9161 13.4756 86.7565 11.1682H95.1443C95.6006 11.1682 95.8989 10.9167 95.8989 10.4362C95.807 6.84856 93.477 4.70083 90.2538 4.70083C87.0306 4.70083 84.4717 7.03238 84.4717 10.7119C84.4717 14.3914 86.9629 16.723 90.3457 16.723L90.3425 16.7214ZM77.0417 11.0086H77.7963C78.2526 11.0086 78.5041 10.7571 78.5735 10.2766C79.0088 7.18878 80.8164 6.77923 82.7383 6.87114C83.1495 6.89049 83.4865 6.57445 83.4865 6.16167V5.45382C83.4865 4.99751 83.2575 4.72179 82.8012 4.69921C81.1001 4.63472 79.5829 5.21841 78.7057 6.87114C78.6573 6.96143 78.5219 6.93725 78.5106 6.83566L78.3687 5.58927C78.3236 5.13295 78.072 4.90399 77.6141 4.90399H74.1635C73.7604 4.90399 73.4315 5.23131 73.4315 5.63603V6.02462C73.4315 6.42772 73.7588 6.75666 74.1635 6.75666H75.5808C75.9839 6.75666 76.3129 7.08398 76.3129 7.48869V10.2766C76.3129 10.6797 76.6402 11.0086 77.0449 11.0086H77.0417ZM73.9571 16.494H81.1098C81.5661 16.494 81.8418 16.2199 81.8418 15.762V15.3734C81.8418 14.9171 81.5677 14.6414 81.1098 14.6414H79.2813C78.825 14.6414 78.5493 14.3673 78.5493 13.9093V12.6516C78.5493 12.1953 78.2752 11.9196 77.8173 11.9196H77.0401C76.5838 11.9196 76.308 12.1937 76.308 12.6516V13.9093C76.308 14.3656 76.0339 14.6414 75.576 14.6414H73.9539C73.4976 14.6414 73.2219 14.9155 73.2219 15.3734V15.762C73.2219 16.2183 73.496 16.494 73.9539 16.494H73.9571ZM62.9185 9.66062C63.2152 7.71766 64.5406 6.50673 66.3465 6.50673C68.1524 6.50673 69.5004 7.74023 69.6601 9.66062H62.9185ZM66.4384 16.723C68.541 16.723 70.6436 15.741 71.6723 13.524C71.9239 12.9983 71.6949 12.6323 71.2386 12.6323H70.3937C69.9825 12.6323 69.731 12.8145 69.5246 13.1805C68.8393 14.3914 67.651 14.8945 66.4401 14.8945C64.36 14.8945 63.0121 13.4772 62.8524 11.1698H71.2402C71.6965 11.1698 71.9948 10.9183 71.9948 10.4378C71.9029 6.85018 69.573 4.70244 66.3498 4.70244C63.1265 4.70244 60.5676 7.03399 60.5676 10.7135C60.5676 14.3931 63.0588 16.7246 66.4417 16.7246L66.4384 16.723ZM39.9981 16.723C43.426 16.723 45.8721 14.1867 45.8721 10.7119C45.8721 7.23716 43.426 4.70083 39.9981 4.70083C36.5701 4.70083 34.124 7.28392 34.124 10.7119C34.124 11.5117 34.2611 12.4033 34.6722 13.3853C34.8786 13.8658 35.2672 13.9335 35.6784 13.6368L36.3411 13.1563C36.6845 12.9048 36.7748 12.6081 36.6604 12.1744C36.4782 11.6036 36.4314 11.1005 36.4314 10.6668C36.4314 8.26749 37.8713 6.62121 39.9964 6.62121C42.1216 6.62121 43.5615 8.2433 43.5615 10.7119C43.5615 13.1805 42.1442 14.8026 40.0416 14.8026C39.3096 14.8026 38.6243 14.6656 37.8019 14.048C37.4585 13.7739 37.1392 13.7287 36.7732 14.0029L36.2701 14.3689C35.859 14.6656 35.8138 15.0767 36.2008 15.3976C37.3892 16.357 38.7597 16.723 39.9948 16.723H39.9981ZM48.7728 16.494H49.5274C49.9305 16.494 50.2595 16.1667 50.2595 15.762V10.3007C50.2595 7.99338 51.493 6.62121 53.4133 6.62121C55.1499 6.62121 56.1561 7.76442 56.1561 9.86701V15.7636C56.1561 16.1667 56.4834 16.4956 56.8881 16.4956H57.6653C58.0684 16.4956 58.3973 16.1683 58.3973 15.7636V9.50099C58.3973 6.41644 56.8204 4.70244 54.147 4.70244C52.3266 4.70244 51.2511 5.44737 50.4481 6.48416C50.3868 6.56317 50.2627 6.51963 50.2627 6.42127V1.45665C50.2579 1.05193 49.9305 0.724609 49.5274 0.724609H48.7728C48.3697 0.724609 48.0408 1.05193 48.0408 1.45665V15.762C48.0408 16.1651 48.3681 16.494 48.7728 16.494Z" fill="#BDBDBD"/>
<path fill-rule="evenodd" clip-rule="evenodd" d="M5.18375 10.2511C5.6144 10.2511 6.47106 10.2274 7.65517 9.73994C9.03504 9.17184 11.7804 8.14053 13.7607 7.08122C15.1458 6.34031 15.7529 5.3604 15.7529 4.04079C15.7529 2.20932 14.2682 0.724609 12.4368 0.724609H4.76324C2.13257 0.724609 0 2.85718 0 5.48785C0 8.11853 1.99672 10.2511 5.18375 10.2511Z" fill="#BDBDBD"/>
<path fill-rule="evenodd" clip-rule="evenodd" d="M6.48047 13.5317C6.48047 12.2422 7.25678 11.0795 8.44779 10.5852L10.8644 9.58229C13.3087 8.56784 15.9991 10.3642 15.9991 13.0107C15.9991 15.0611 14.3366 16.7231 12.2862 16.7226L9.6698 16.7219C7.90823 16.7214 6.48047 15.2932 6.48047 13.5317Z" fill="#BDBDBD"/>
<path d="M2.74588 10.877H2.74583C1.22935 10.877 0 12.1063 0 13.6228V13.9784C0 15.4949 1.22935 16.7243 2.74583 16.7243H2.74588C4.26235 16.7243 5.4917 15.4949 5.4917 13.9784V13.6228C5.4917 12.1063 4.26235 10.877 2.74588 10.877Z" fill="#BDBDBD"/>
</svg>
