<svg width="16" height="16" viewBox="0 0 16 16" fill="none" xmlns="http://www.w3.org/2000/svg">
<path d="M8.70808 2.15552C8.90335 2.35078 8.90335 2.66736 8.70808 2.86262L3.38582 8.18489C3.19056 8.38015 2.87397 8.38015 2.67871 8.18489L2.32516 7.83134C2.1299 7.63607 2.1299 7.31949 2.32516 7.12423L7.64742 1.80196C7.84269 1.6067 8.15927 1.6067 8.35453 1.80196L8.70808 2.15552Z" fill="#FAFAFA"/>
<path d="M7.29226 2.15552C7.097 2.35078 7.097 2.66736 7.29226 2.86262L12.6145 8.18489C12.8098 8.38015 13.1264 8.38015 13.3216 8.18489L13.6752 7.83134C13.8705 7.63607 13.8705 7.31949 13.6752 7.12423L8.35292 1.80196C8.15766 1.6067 7.84108 1.6067 7.64582 1.80196L7.29226 2.15552Z" fill="#FAFAFA"/>
<path d="M7.73674 3.52504C7.4606 3.52504 7.23675 3.7489 7.23675 4.02504V7.28425C7.23675 7.45142 7.32031 7.60754 7.45941 7.70027L7.95941 8.0336C8.29169 8.25511 8.73675 8.01691 8.73675 7.61757V4.02503C8.73675 3.74888 8.51289 3.52502 8.23674 3.52503L7.73674 3.52504Z" fill="#FAFAFA"/>
<path d="M8.23676 14.5518C8.5129 14.5518 8.73675 14.3279 8.73675 14.0518V9.79258C8.73675 9.6254 8.6532 9.46928 8.5141 9.37655L8.0141 9.04323C7.68182 8.82172 7.23675 9.05991 7.23675 9.45926V14.0518C7.23675 14.3279 7.46062 14.5518 7.73676 14.5518L8.23676 14.5518Z" fill="#FAFAFA"/>
</svg>
