<svg width="40" height="40" viewBox="0 0 40 40" fill="none" xmlns="http://www.w3.org/2000/svg">
<rect width="40" height="40" rx="4" fill="#F5F4F2"/>
<path d="M13.64 31C13.15 31 12.87 30.76 12.8 30.28L10.19 16.285C10.18 16.235 10.175 16.165 10.175 16.075C10.175 15.715 10.355 15.455 10.715 15.295L11.585 14.965C11.735 14.905 11.87 14.875 11.99 14.875C12.3 14.875 12.495 15.08 12.575 15.49L14.63 26.875C14.64 26.955 14.665 27.015 14.705 27.055C14.745 27.095 14.785 27.115 14.825 27.115C14.925 27.115 14.995 27.04 15.035 26.89L18.455 13.645C18.505 13.415 18.605 13.245 18.755 13.135C18.915 13.015 19.115 12.955 19.355 12.955H20.075C20.315 12.955 20.51 13.015 20.66 13.135C20.82 13.245 20.925 13.415 20.975 13.645L24.395 26.845C24.445 26.995 24.515 27.07 24.605 27.07C24.705 27.07 24.77 26.995 24.8 26.845L25.505 22.975C25.535 22.775 25.605 22.62 25.715 22.51C25.825 22.39 25.965 22.33 26.135 22.33C26.255 22.33 26.38 22.36 26.51 22.42L27.26 22.75C27.62 22.91 27.8 23.17 27.8 23.53C27.8 23.58 27.79 23.655 27.77 23.755L26.555 30.28C26.485 30.76 26.195 31 25.685 31H23.93C23.43 31 23.13 30.77 23.03 30.31L19.865 18.265C19.825 18.105 19.76 18.025 19.67 18.025C19.57 18.025 19.5 18.105 19.46 18.265L16.31 30.31C16.19 30.77 15.89 31 15.41 31H13.64ZM9.23 11.17C9.21 11.07 9.2 10.995 9.2 10.945C9.2 10.745 9.265 10.59 9.395 10.48C9.535 10.36 9.72 10.3 9.95 10.3H10.94C11.43 10.3 11.72 10.545 11.81 11.035L12.17 12.955C12.18 12.995 12.185 13.05 12.185 13.12C12.185 13.5 11.995 13.77 11.615 13.93L10.73 14.275C10.58 14.335 10.445 14.365 10.325 14.365C10.005 14.365 9.8 14.165 9.71 13.765L9.23 11.17ZM26.99 14.845C27.08 14.365 27.36 14.125 27.83 14.125H28.7C28.93 14.125 29.11 14.185 29.24 14.305C29.37 14.415 29.435 14.575 29.435 14.785C29.435 14.875 29.43 14.945 29.42 14.995L28.235 21.205C28.195 21.405 28.12 21.56 28.01 21.67C27.91 21.77 27.785 21.82 27.635 21.82C27.495 21.82 27.37 21.795 27.26 21.745L26.48 21.415C26.1 21.265 25.91 21 25.91 20.62C25.91 20.54 25.915 20.475 25.925 20.425L26.99 14.845ZM27.635 11.035C27.705 10.545 27.99 10.3 28.49 10.3H29.375C29.605 10.3 29.785 10.36 29.915 10.48C30.055 10.6 30.125 10.765 30.125 10.975C30.125 11.055 30.12 11.12 30.11 11.17L29.855 12.46C29.765 12.94 29.48 13.18 29 13.18H28.13C27.89 13.18 27.705 13.12 27.575 13C27.445 12.87 27.38 12.7 27.38 12.49C27.38 12.41 27.385 12.35 27.395 12.31L27.635 11.035Z" fill="#8E8572"/>
</svg>
